<mxfile host="app.diagrams.net" agent="Mozilla/5.0 (Windows NT 10.0; Win64; x64) AppleWebKit/537.36 (KHTML, like Gecko) Chrome/134.0.0.0 Safari/537.36" version="26.1.3">
  <diagram name="PÃ¡gina-1" id="cdnkT1zs1XwCESeL_G5S">
    <mxGraphModel dx="1434" dy="780" grid="1" gridSize="10" guides="1" tooltips="1" connect="1" arrows="1" fold="1" page="1" pageScale="1" pageWidth="827" pageHeight="1169" math="0" shadow="0">
      <root>
        <mxCell id="0" />
        <mxCell id="1" parent="0" />
        <mxCell id="qOXkQI_YLBBPvtACwHeo-29" style="edgeStyle=orthogonalEdgeStyle;rounded=0;orthogonalLoop=1;jettySize=auto;html=1;entryX=0;entryY=0.5;entryDx=0;entryDy=0;" edge="1" parent="1" source="qOXkQI_YLBBPvtACwHeo-1" target="qOXkQI_YLBBPvtACwHeo-28">
          <mxGeometry relative="1" as="geometry" />
        </mxCell>
        <mxCell id="qOXkQI_YLBBPvtACwHeo-1" value="HOTEL" style="rounded=0;whiteSpace=wrap;html=1;" vertex="1" parent="1">
          <mxGeometry x="40" y="170" width="120" height="60" as="geometry" />
        </mxCell>
        <mxCell id="qOXkQI_YLBBPvtACwHeo-2" value="CLIENTE" style="rounded=0;whiteSpace=wrap;html=1;" vertex="1" parent="1">
          <mxGeometry x="60" y="290" width="120" height="60" as="geometry" />
        </mxCell>
        <mxCell id="qOXkQI_YLBBPvtACwHeo-8" value="1.N" style="text;html=1;align=center;verticalAlign=middle;resizable=0;points=[];autosize=1;strokeColor=none;fillColor=none;" vertex="1" parent="1">
          <mxGeometry x="180" y="170" width="40" height="30" as="geometry" />
        </mxCell>
        <mxCell id="qOXkQI_YLBBPvtACwHeo-18" style="edgeStyle=orthogonalEdgeStyle;rounded=0;orthogonalLoop=1;jettySize=auto;html=1;entryX=0.079;entryY=0.533;entryDx=0;entryDy=0;entryPerimeter=0;" edge="1" parent="1" source="qOXkQI_YLBBPvtACwHeo-2">
          <mxGeometry relative="1" as="geometry">
            <mxPoint x="301.05999999999995" y="321.98" as="targetPoint" />
          </mxGeometry>
        </mxCell>
        <mxCell id="qOXkQI_YLBBPvtACwHeo-23" value="1.N" style="text;html=1;align=center;verticalAlign=middle;resizable=0;points=[];autosize=1;strokeColor=none;fillColor=none;" vertex="1" parent="1">
          <mxGeometry x="180" y="290" width="40" height="30" as="geometry" />
        </mxCell>
        <mxCell id="qOXkQI_YLBBPvtACwHeo-34" style="edgeStyle=orthogonalEdgeStyle;rounded=0;orthogonalLoop=1;jettySize=auto;html=1;entryX=0;entryY=0.5;entryDx=0;entryDy=0;" edge="1" parent="1" source="qOXkQI_YLBBPvtACwHeo-27" target="qOXkQI_YLBBPvtACwHeo-33">
          <mxGeometry relative="1" as="geometry" />
        </mxCell>
        <mxCell id="qOXkQI_YLBBPvtACwHeo-27" value="QUARTO" style="rounded=0;whiteSpace=wrap;html=1;" vertex="1" parent="1">
          <mxGeometry x="390" y="170" width="120" height="60" as="geometry" />
        </mxCell>
        <mxCell id="qOXkQI_YLBBPvtACwHeo-30" style="edgeStyle=orthogonalEdgeStyle;rounded=0;orthogonalLoop=1;jettySize=auto;html=1;entryX=0;entryY=0.5;entryDx=0;entryDy=0;" edge="1" parent="1" source="qOXkQI_YLBBPvtACwHeo-28" target="qOXkQI_YLBBPvtACwHeo-27">
          <mxGeometry relative="1" as="geometry" />
        </mxCell>
        <mxCell id="qOXkQI_YLBBPvtACwHeo-28" value="POSSUI" style="rhombus;whiteSpace=wrap;html=1;" vertex="1" parent="1">
          <mxGeometry x="230" y="175" width="120" height="50" as="geometry" />
        </mxCell>
        <mxCell id="qOXkQI_YLBBPvtACwHeo-31" value="1.N&lt;div&gt;&lt;br&gt;&lt;/div&gt;" style="text;html=1;align=center;verticalAlign=middle;resizable=0;points=[];autosize=1;strokeColor=none;fillColor=none;" vertex="1" parent="1">
          <mxGeometry x="350" y="175" width="40" height="40" as="geometry" />
        </mxCell>
        <mxCell id="qOXkQI_YLBBPvtACwHeo-32" value="CATEGORIA DE QUARTOS" style="rounded=0;whiteSpace=wrap;html=1;" vertex="1" parent="1">
          <mxGeometry x="770" y="170" width="120" height="60" as="geometry" />
        </mxCell>
        <mxCell id="qOXkQI_YLBBPvtACwHeo-35" style="edgeStyle=orthogonalEdgeStyle;rounded=0;orthogonalLoop=1;jettySize=auto;html=1;entryX=0;entryY=0.5;entryDx=0;entryDy=0;" edge="1" parent="1" source="qOXkQI_YLBBPvtACwHeo-33" target="qOXkQI_YLBBPvtACwHeo-32">
          <mxGeometry relative="1" as="geometry" />
        </mxCell>
        <mxCell id="qOXkQI_YLBBPvtACwHeo-33" value="POSSUI" style="rhombus;whiteSpace=wrap;html=1;" vertex="1" parent="1">
          <mxGeometry x="590" y="180" width="120" height="50" as="geometry" />
        </mxCell>
        <mxCell id="qOXkQI_YLBBPvtACwHeo-36" value="N.N" style="text;html=1;align=center;verticalAlign=middle;resizable=0;points=[];autosize=1;strokeColor=none;fillColor=none;" vertex="1" parent="1">
          <mxGeometry x="520" y="170" width="40" height="30" as="geometry" />
        </mxCell>
        <mxCell id="qOXkQI_YLBBPvtACwHeo-37" value="N.N" style="text;html=1;align=center;verticalAlign=middle;resizable=0;points=[];autosize=1;strokeColor=none;fillColor=none;" vertex="1" parent="1">
          <mxGeometry x="730" y="170" width="40" height="30" as="geometry" />
        </mxCell>
        <mxCell id="qOXkQI_YLBBPvtACwHeo-40" style="edgeStyle=orthogonalEdgeStyle;rounded=0;orthogonalLoop=1;jettySize=auto;html=1;" edge="1" parent="1" source="qOXkQI_YLBBPvtACwHeo-38" target="qOXkQI_YLBBPvtACwHeo-39">
          <mxGeometry relative="1" as="geometry" />
        </mxCell>
        <mxCell id="qOXkQI_YLBBPvtACwHeo-38" value="FAZ" style="rhombus;whiteSpace=wrap;html=1;" vertex="1" parent="1">
          <mxGeometry x="300" y="295" width="120" height="50" as="geometry" />
        </mxCell>
        <mxCell id="qOXkQI_YLBBPvtACwHeo-44" style="edgeStyle=orthogonalEdgeStyle;rounded=0;orthogonalLoop=1;jettySize=auto;html=1;entryX=0;entryY=0.5;entryDx=0;entryDy=0;" edge="1" parent="1" source="qOXkQI_YLBBPvtACwHeo-39" target="qOXkQI_YLBBPvtACwHeo-43">
          <mxGeometry relative="1" as="geometry" />
        </mxCell>
        <mxCell id="qOXkQI_YLBBPvtACwHeo-39" value="RESEVA" style="rounded=0;whiteSpace=wrap;html=1;" vertex="1" parent="1">
          <mxGeometry x="490" y="290" width="120" height="60" as="geometry" />
        </mxCell>
        <mxCell id="qOXkQI_YLBBPvtACwHeo-41" value="1.N" style="text;html=1;align=center;verticalAlign=middle;resizable=0;points=[];autosize=1;strokeColor=none;fillColor=none;" vertex="1" parent="1">
          <mxGeometry x="450" y="288" width="40" height="30" as="geometry" />
        </mxCell>
        <mxCell id="qOXkQI_YLBBPvtACwHeo-49" style="edgeStyle=orthogonalEdgeStyle;rounded=0;orthogonalLoop=1;jettySize=auto;html=1;entryX=1;entryY=0.5;entryDx=0;entryDy=0;" edge="1" parent="1" source="qOXkQI_YLBBPvtACwHeo-42" target="qOXkQI_YLBBPvtACwHeo-48">
          <mxGeometry relative="1" as="geometry" />
        </mxCell>
        <mxCell id="qOXkQI_YLBBPvtACwHeo-42" value="DETALHES DE RESERVA" style="rounded=0;whiteSpace=wrap;html=1;" vertex="1" parent="1">
          <mxGeometry x="880" y="295" width="120" height="60" as="geometry" />
        </mxCell>
        <mxCell id="qOXkQI_YLBBPvtACwHeo-45" style="edgeStyle=orthogonalEdgeStyle;rounded=0;orthogonalLoop=1;jettySize=auto;html=1;entryX=0;entryY=0.5;entryDx=0;entryDy=0;" edge="1" parent="1" source="qOXkQI_YLBBPvtACwHeo-43" target="qOXkQI_YLBBPvtACwHeo-42">
          <mxGeometry relative="1" as="geometry" />
        </mxCell>
        <mxCell id="qOXkQI_YLBBPvtACwHeo-43" value="POSSUI" style="rhombus;whiteSpace=wrap;html=1;" vertex="1" parent="1">
          <mxGeometry x="680" y="300" width="120" height="50" as="geometry" />
        </mxCell>
        <mxCell id="qOXkQI_YLBBPvtACwHeo-46" value="1.N" style="text;html=1;align=center;verticalAlign=middle;resizable=0;points=[];autosize=1;strokeColor=none;fillColor=none;" vertex="1" parent="1">
          <mxGeometry x="610" y="288" width="40" height="30" as="geometry" />
        </mxCell>
        <mxCell id="qOXkQI_YLBBPvtACwHeo-47" value="1.N" style="text;html=1;align=center;verticalAlign=middle;resizable=0;points=[];autosize=1;strokeColor=none;fillColor=none;" vertex="1" parent="1">
          <mxGeometry x="840" y="298" width="40" height="30" as="geometry" />
        </mxCell>
        <mxCell id="qOXkQI_YLBBPvtACwHeo-50" style="edgeStyle=orthogonalEdgeStyle;rounded=0;orthogonalLoop=1;jettySize=auto;html=1;entryX=0.5;entryY=0;entryDx=0;entryDy=0;" edge="1" parent="1" source="qOXkQI_YLBBPvtACwHeo-48" target="qOXkQI_YLBBPvtACwHeo-27">
          <mxGeometry relative="1" as="geometry" />
        </mxCell>
        <mxCell id="qOXkQI_YLBBPvtACwHeo-48" value="PERTENCE" style="rhombus;whiteSpace=wrap;html=1;" vertex="1" parent="1">
          <mxGeometry x="800" y="40" width="120" height="50" as="geometry" />
        </mxCell>
        <mxCell id="qOXkQI_YLBBPvtACwHeo-51" value="N.1" style="text;html=1;align=center;verticalAlign=middle;resizable=0;points=[];autosize=1;strokeColor=none;fillColor=none;" vertex="1" parent="1">
          <mxGeometry x="910" y="265" width="40" height="30" as="geometry" />
        </mxCell>
        <mxCell id="qOXkQI_YLBBPvtACwHeo-52" value="1.N" style="text;html=1;align=center;verticalAlign=middle;resizable=0;points=[];autosize=1;strokeColor=none;fillColor=none;" vertex="1" parent="1">
          <mxGeometry x="450" y="140" width="40" height="30" as="geometry" />
        </mxCell>
      </root>
    </mxGraphModel>
  </diagram>
</mxfile>
